<svg xmlns="http://www.w3.org/2000/svg" xmlns:xlink="http://www.w3.org/1999/xlink"><symbol id="icon-btn-burger" viewBox="0 0 19 19">
<path d="M1.11486 14.3C2.60045 14.3 16.3992 14.3 17.8854 14.3C19.3715 14.3 19.3715 16.7 17.8854 16.7C16.3992 16.7 2.60225 16.7 1.11486 16.7C-0.372523 16.7 -0.37072 14.3 1.11486 14.3Z"/>
<path d="M1.11486 8.30005C2.60045 8.30005 16.3992 8.30005 17.8854 8.30005C19.3715 8.30005 19.3715 10.7 17.8854 10.7C16.3992 10.7 2.60225 10.7 1.11486 10.7C-0.372523 10.7 -0.37072 8.30005 1.11486 8.30005Z"/>
<path d="M1.11486 2.30005C2.60045 2.30005 16.3992 2.30005 17.8854 2.30005C19.3715 2.30005 19.3715 4.70005 17.8854 4.70005C16.3992 4.70005 2.60225 4.70005 1.11486 4.70005C-0.372523 4.70005 -0.37072 2.30005 1.11486 2.30005Z"/>
</symbol><symbol id="icon-btn-cross" viewBox="0 0 19 19">
<path d="M11.5926 9.49938L18.6965 2.39524C18.8919 2.19967 18.9997 1.93877 19 1.66057C19 1.38221 18.8922 1.121 18.6965 0.925748L18.0739 0.303382C17.8782 0.107358 17.6173 0 17.3388 0C17.0608 0 16.7999 0.107358 16.6041 0.303382L9.50031 7.40707L2.39616 0.303382C2.20076 0.107358 1.9397 0 1.66134 0C1.38329 0 1.12224 0.107358 0.926829 0.303382L0.304 0.925748C-0.101333 1.33108 -0.101333 1.99037 0.304 2.39524L7.40799 9.49938L0.304 16.6032C0.108439 16.7991 0.000772358 17.06 0.000772358 17.3382C0.000772358 17.6164 0.108439 17.8773 0.304 18.073L0.926675 18.6954C1.12208 18.8913 1.38329 18.9988 1.66119 18.9988C1.93954 18.9988 2.2006 18.8913 2.39601 18.6954L9.50015 11.5915L16.604 18.6954C16.7997 18.8913 17.0606 18.9988 17.3387 18.9988H17.339C17.6172 18.9988 17.8781 18.8913 18.0738 18.6954L18.6963 18.073C18.8917 17.8775 18.9995 17.6164 18.9995 17.3382C18.9995 17.06 18.8917 16.7991 18.6963 16.6034L11.5926 9.49938Z"/>
</symbol></svg>