<svg xmlns="http://www.w3.org/2000/svg" xmlns:xlink="http://www.w3.org/1999/xlink"><symbol id="icon-archive" viewBox="0 0 24 24">
<path d="M15 12.51H15.5V12.01V10.51H16.5V13.01C16.5 13.2869 16.2769 13.51 16 13.51H8C7.72314 13.51 7.5 13.2869 7.5 13.01V10.51H8.5V12.01V12.51H9H15Z" fill="#2C2C2C" stroke="currentColor"/>
<path d="M2.92205 6.30863L2.90861 6.29902L5.3096 3.10657L5.3101 3.1059C5.58912 2.73363 6.0385 2.50903 6.508 2.50903H17.508C17.9791 2.50903 18.4295 2.73545 18.7101 3.11188L18.7105 3.11237L21.1053 6.31638L21.0935 6.32544L21.3866 6.72011C21.4672 6.82871 21.5 6.92251 21.5 7.01003V18.01C21.5 18.8369 20.8269 19.51 20 19.51H4C3.17314 19.51 2.5 18.8369 2.5 18.01V7.01003C2.5 6.92206 2.53338 6.82686 2.615 6.71803L2.92205 6.30863ZM6.508 3.51003H6.2584L6.10838 3.70952L4.60438 5.70952L4.0024 6.51003H5.004H19.003H20.001L19.4035 5.71067L17.9085 3.71067L17.7585 3.51003H17.508H6.508ZM3.5 18.01V18.51H4H20.002H20.5021L20.502 18.0099L20.5 8.00993L20.4999 7.51003H20H4H3.5V8.01003V18.01Z" fill="#2C2C2C" stroke="currentColor"/>
</symbol><symbol id="icon-breadcrumb" viewBox="0 0 8 13">
<path d="M1 12L7 6.5L1 1" stroke="currentColor" stroke-width="2" stroke-linecap="round" stroke-linejoin="round"/>
</symbol><symbol id="icon-cross-1" viewBox="0 0 212.982 212.982">
<g id="Close">
	<path style="fill-rule:evenodd;clip-rule:evenodd;" d="M131.804,106.491l75.936-75.936c6.99-6.99,6.99-18.323,0-25.312
		c-6.99-6.99-18.322-6.99-25.312,0l-75.937,75.937L30.554,5.242c-6.99-6.99-18.322-6.99-25.312,0c-6.989,6.99-6.989,18.323,0,25.312
		l75.937,75.936L5.242,182.427c-6.989,6.99-6.989,18.323,0,25.312c6.99,6.99,18.322,6.99,25.312,0l75.937-75.937l75.937,75.937
		c6.989,6.99,18.322,6.99,25.312,0c6.99-6.99,6.99-18.322,0-25.312L131.804,106.491z"/>
</g>

</symbol><symbol id="icon-cross" viewBox="0 0 16 16">
<g opacity="0.7">
<path d="M8.00002 7.76427L7.64647 7.41071L5.45121 5.21544C5.45121 5.21544 5.45121 5.21544 5.45121 5.21544C5.38612 5.15036 5.2806 5.15036 5.2155 5.21543C5.2155 5.21544 5.2155 5.21544 5.2155 5.21544M8.00002 7.76427L4.86195 5.8047C4.6016 5.54435 4.6016 5.12224 4.86195 4.86189L5.2155 5.21544M8.00002 7.76427L8.35357 7.41071M8.00002 7.76427L8.35357 7.41071M5.2155 5.21544C5.15042 5.28054 5.15042 5.38606 5.2155 5.45115L5.2155 5.21544ZM8.35357 7.41071L10.5488 5.21544L10.5488 5.21543M8.35357 7.41071L10.5488 5.21543M10.5488 5.21543C10.6139 5.15036 10.7195 5.15036 10.7845 5.21543L10.5488 5.21543ZM7.41077 7.6464L5.2155 5.45115L10.7845 5.21543C10.8496 5.28052 10.8496 5.38605 10.7845 5.45115C10.7845 5.45115 10.7845 5.45116 10.7845 5.45116L8.58927 7.64641L8.23571 7.99996L8.58927 8.35351L10.7845 10.5488C10.8496 10.6139 10.8496 10.7194 10.7845 10.7845C10.7195 10.8495 10.6139 10.8495 10.5488 10.7845L8.35357 8.58921L8.00002 8.23565L7.64647 8.58921L5.45122 10.7845C5.45122 10.7845 5.45121 10.7845 5.45121 10.7845C5.38611 10.8495 5.28058 10.8495 5.21549 10.7845C5.15042 10.7194 5.15042 10.6139 5.21549 10.5488L5.2155 10.5488L7.41077 8.35351L7.76433 7.99996L7.41077 7.6464Z" fill="transparant" stroke="currentColor"/>
</g>
</symbol><symbol id="icon-download" viewBox="0 0 24 24">
<path d="M4 12V19H20V12" stroke="currentColor" stroke-width="2" stroke-linecap="round" stroke-linejoin="round"/>
<path d="M12 3.50073L12 13.5007" stroke="currentColor" stroke-width="2" stroke-linecap="round" stroke-linejoin="round"/>
<path d="M12 13.5007L15.375 10.1257" stroke="currentColor" stroke-width="2" stroke-linecap="round" stroke-linejoin="round"/>
<path d="M12 13.5007L8.625 10.1257" stroke="currentColor" stroke-width="2" stroke-linecap="round" stroke-linejoin="round"/>
</symbol><symbol id="icon-search" viewBox="0 0 15 15">
<path d="M10.4834 9.18645L10.2381 9.53097L10.5371 9.83005L14.3535 13.6465C14.5488 13.8417 14.5488 14.1583 14.3535 14.3535C14.1583 14.5488 13.8417 14.5488 13.6465 14.3535L9.83005 10.5371L9.53097 10.2381L9.18645 10.4834C8.28755 11.1236 7.18845 11.5 6 11.5C2.96243 11.5 0.5 9.03756 0.5 6C0.5 2.96243 2.96243 0.5 6 0.5C9.03756 0.5 11.5 2.96243 11.5 6C11.5 7.18845 11.1236 8.28755 10.4834 9.18645ZM6 1.5C3.51472 1.5 1.5 3.51472 1.5 6C1.5 8.48524 3.51471 10.5 6 10.5C8.48524 10.5 10.5 8.48524 10.5 6C10.5 3.51471 8.48524 1.5 6 1.5Z" fill="currentColor" stroke="currentColor"/>
</symbol></svg>